<svg width="166.81" height="37.39" viewBox="0 0 166.81 37.39" xmlns="http://www.w3.org/2000/svg">
  <g class="svg-text" transform="translate(-19.8,-14.95)">
    <path d="m 35.444975,45.02589 c -4.6228,0 -7.5184,-5.08 -7.5184,-11.3792 0,-6.2992 2.8956,-11.3792 7.5184,-11.3792 2.4892,0 4.4196,1.8796 5.4864,4.0132 l 6.5024,-4.064 c -1.8288,-3.556 -5.588,-7.2644 -11.938,-7.2644 -9.8552,0 -15.697199,8.382 -15.697199,18.6944 0,10.3124 5.283199,18.6944 15.697199,18.6944 6.35,0 10.1092,-3.7084 11.938,-7.2644 l -6.5024,-4.064 c -1.0668,2.1336 -2.9972,4.0132 -5.4864,4.0132 z"/>
    <path d="m 74.861534,27.14429 c 0,-6.4008 -4.2672,-11.3792 -13.9192,-11.3792 h -11.2776 v 35.7632 h 8.128 v -12.5984 h 1.9304 l 6.1976,12.5984 h 8.9408 l -7.3152,-13.6144 c 4.7244,-1.8288 7.3152,-6.0452 7.3152,-10.7696 z m -17.0688,-4.064 h 3.0988 c 3.5052,0 5.842,1.0668 5.842,4.2672 0,2.8448 -2.3368,4.2672 -5.842,4.2672 h -3.0988 z"/>
    <path d="m 101.88289,23.08029 v -7.3152 H 79.124493 v 35.7632 h 22.758397 v -7.3152 H 87.252493 v -6.9088 h 11.379199 v -7.3152 H 87.252493 v -6.9088 z"/>
    <path d="m 124.63705,51.52829 h 8.7376 l -11.3792,-35.7632 h -7.31519 l -11.3792,35.7632 h 8.7376 l 1.7272,-6.5024 h 9.14399 z m -8.99159,-13.8176 2.69239,-10.16 2.6924,10.16 z"/>
    <path d="m 134.38641,15.76509 v 7.3152 h 8.128 v 28.448 h 8.128 v -28.448 h 8.128 v -7.3152 z"/>
    <path d="m 186.60456,23.08029 v -7.3152 h -22.7584 v 35.7632 h 22.7584 v -7.3152 h -14.6304 v -6.9088 h 11.3792 v -7.3152 h -11.3792 v -6.9088 z"/>
  </g>
</svg>
